<?xml version="1.0" encoding="UTF-8" standalone="no"?> <svg id="Layer_1" data-name="Layer 1" xmlns="http://www.w3.org/2000/svg" viewBox="0 0 64 64"><rect x="19" y="3" width="26" height="30" style="fill:#709de6"/><path d="M24,31V19a3,3,0,0,1,3-3H37a3,3,0,0,1,3,3V31Z" style="fill:#d8e0e6"/><circle cx="32" cy="12" r="4" style="fill:#ffc780"/><polygon points="32 16 30 25 32 28 34 25 32 16" style="fill:#6c8199"/><circle cx="7" cy="42" r="3" style="fill:#90aacc"/><circle cx="7" cy="50" r="3" style="fill:#6c8199"/><circle cx="7" cy="58" r="3" style="fill:#90aacc"/><rect x="13" y="41" width="5" height="2" style="fill:#6c8199"/><rect x="13" y="49" width="5" height="2" style="fill:#90aacc"/><rect x="27" y="49" width="5" height="2" style="fill:#90aacc"/><rect x="27" y="41" width="5" height="2" style="fill:#6c8199"/><rect x="13" y="57" width="5" height="2" style="fill:#6c8199"/><rect x="20" y="41" width="5" height="2" style="fill:#90aacc"/><rect x="20" y="49" width="5" height="2" style="fill:#6c8199"/><rect x="20" y="57" width="5" height="2" style="fill:#90aacc"/><rect x="27" y="57" width="5" height="2" style="fill:#6c8199"/><circle cx="48" cy="50" r="11" style="fill:#2a9d8f"/><path d="M45.172,55.657a.993.993,0,0,1-.707-.293l-2.829-2.829,1.414-1.414,2.122,2.122,7.778-7.778,1.414,1.414-8.485,8.485A.993.993,0,0,1,45.172,55.657Z" style="fill:#e6eef3"/></svg>