<?xml version="1.0" encoding="UTF-8"?>
<!DOCTYPE svg PUBLIC "-//W3C//DTD SVG 1.1//EN" "http://www.w3.org/Graphics/SVG/1.1/DTD/svg11.dtd">
<svg xmlns="http://www.w3.org/2000/svg" version="1.1" width="1080px" height="96px" style="shape-rendering:geometricPrecision; text-rendering:geometricPrecision; image-rendering:optimizeQuality; fill-rule:evenodd; clip-rule:evenodd" xmlns:xlink="http://www.w3.org/1999/xlink">
<g><path style="opacity:0.098" fill="#777777" d="M 307.5,22.5 C 285.505,5.58533 260.505,-0.914666 232.5,3C 225.845,4.99771 219.178,6.99771 212.5,9C 203.143,14.0072 194.143,19.5072 185.5,25.5C 202.626,8.64112 223.459,0.30779 248,0.5C 266.241,0.076024 283.075,4.57602 298.5,14C 302.027,16.3622 305.027,19.1955 307.5,22.5 Z"/></g>
<g><path style="opacity:0.998" fill="#fdfdfd" d="M 307.5,22.5 C 310.167,25.8333 313.167,28.8333 316.5,31.5C 320.164,36.821 323.33,42.4877 326,48.5C 326.708,49.3805 327.542,50.0472 328.5,50.5C 328.517,52.5648 328.85,54.5648 329.5,56.5C 333.806,57.2505 338.14,58.4171 342.5,60C 347.877,63.8151 349.877,68.9817 348.5,75.5C 350.548,75.8404 351.548,75.5071 351.5,74.5C 351.842,73.6618 352.508,73.3284 353.5,73.5C 353.5,74.1667 353.833,74.5 354.5,74.5C 359.339,75.4344 364.339,76.2677 369.5,77C 371.158,78.6625 373.158,79.4959 375.5,79.5C 378.5,82.1667 381.5,84.8333 384.5,87.5C 384.628,89.0898 385.295,90.4231 386.5,91.5C 387.572,88.7963 388.572,86.1296 389.5,83.5C 389.557,82.391 389.89,81.391 390.5,80.5C 394.988,76.8564 399.655,73.3564 404.5,70C 418.62,65.3909 431.287,67.8909 442.5,77.5C 443.518,76.8075 444.518,76.1408 445.5,75.5C 449.206,70.463 454.206,67.1296 460.5,65.5C 463.167,65.5 465.833,65.5 468.5,65.5C 468.917,66.1239 469.584,66.4573 470.5,66.5C 472.709,65.0825 475.043,63.9158 477.5,63C 483.5,62.6667 489.5,62.3333 495.5,62C 496.056,61.6174 496.389,61.1174 496.5,60.5C 496.5,59.8333 496.5,59.1667 496.5,58.5C 502.832,57.3446 509.166,57.3446 515.5,58.5C 519.364,60.5943 523.031,62.9277 526.5,65.5C 528.794,69.7518 530.794,74.0851 532.5,78.5C 532.5,81.1667 532.5,83.8333 532.5,86.5C 539.21,86.7286 544.21,89.7286 547.5,95.5C 364.833,95.5 182.167,95.5 -0.5,95.5C -0.5,93.5 -0.5,91.5 -0.5,89.5C 4.39531,85.0244 9.39531,80.5244 14.5,76C 14.2716,75.6012 13.9382,75.4346 13.5,75.5C 13.8417,74.6618 14.5084,74.3284 15.5,74.5C 18.1974,74.3424 20.8641,73.1757 23.5,71C 30.3048,68.4716 37.3048,66.6383 44.5,65.5C 46.0296,65.3601 47.0296,64.6935 47.5,63.5C 47.8333,63.5 48.1667,63.5 48.5,63.5C 61.1753,64.3691 73.5086,67.0358 85.5,71.5C 85.448,69.0971 85.7814,66.7638 86.5,64.5C 91.1074,61.3635 96.1074,59.0301 101.5,57.5C 103.867,57.8417 106.2,58.3417 108.5,59C 110.265,60.2978 112.099,61.4645 114,62.5C 118.682,59.6345 122.849,56.3011 126.5,52.5C 126.833,52.5 127.167,52.5 127.5,52.5C 133.471,51.7588 139.471,51.4255 145.5,51.5C 152.999,52.393 159.665,55.393 165.5,60.5C 167.879,56.3707 169.879,52.0374 171.5,47.5C 171.137,46.8165 170.804,46.1499 170.5,45.5C 173.888,45.1261 175.722,43.1261 176,39.5C 179.796,35.5506 182.963,31.2173 185.5,26.5C 185.5,26.1667 185.5,25.8333 185.5,25.5C 194.143,19.5072 203.143,14.0072 212.5,9C 219.178,6.99771 225.845,4.99771 232.5,3C 260.505,-0.914666 285.505,5.58533 307.5,22.5 Z"/></g>
<g><path style="opacity:0.078" fill="#444444" d="M 782.5,2.5 C 779.287,3.48734 775.954,4.48734 772.5,5.5C 771.893,5.37642 771.56,5.04309 771.5,4.5C 771.918,3.77842 772.584,3.27842 773.5,3C 776.482,2.50204 779.482,2.33537 782.5,2.5 Z"/></g>
<g><path style="opacity:0.998" fill="#fdfdfd" d="M 782.5,2.5 C 782.833,2.5 783.167,2.5 783.5,2.5C 795.839,3.33498 808.173,5.16832 820.5,8C 835.838,13.6736 848.672,22.8403 859,35.5C 864.236,43.4224 868.402,51.7557 871.5,60.5C 871.5,60.8333 871.5,61.1667 871.5,61.5C 871.335,64.8499 871.502,68.1832 872,71.5C 872.671,72.2524 873.504,72.5858 874.5,72.5C 878.985,73.7838 883.651,74.7838 888.5,75.5C 891.23,77.8132 894.396,79.4798 898,80.5C 899.095,79.3066 899.928,77.9733 900.5,76.5C 900.66,74.847 901.326,73.5137 902.5,72.5C 904.833,72.1667 906.167,70.8333 906.5,68.5C 911.442,64.8972 916.108,60.8972 920.5,56.5C 922.465,54.5121 924.798,53.0121 927.5,52C 928.252,51.3292 928.586,50.4959 928.5,49.5C 929.436,48.0256 930.77,47.0256 932.5,46.5C 933.497,47.7125 934.497,47.5458 935.5,46C 935.272,45.6012 934.938,45.4346 934.5,45.5C 934.842,44.6618 935.508,44.3284 936.5,44.5C 936.56,45.0431 936.893,45.3764 937.5,45.5C 964.002,33.3575 991.335,31.1908 1019.5,39C 1027.27,41.9394 1034.94,45.106 1042.5,48.5C 1043.96,51.255 1046.29,53.0884 1049.5,54C 1055.78,59.79 1062.11,65.29 1068.5,70.5C 1071.92,77.0049 1075.58,83.3382 1079.5,89.5C 1079.5,91.5 1079.5,93.5 1079.5,95.5C 903.5,95.5 727.5,95.5 551.5,95.5C 552.777,93.8516 553.777,92.0183 554.5,90C 559.159,86.2047 563.825,82.7047 568.5,79.5C 568.833,79.5 569.167,79.5 569.5,79.5C 577.142,78.7368 584.809,78.4035 592.5,78.5C 592.833,78.5 593.167,78.5 593.5,78.5C 598.688,82.0219 603.854,85.6886 609,89.5C 610.739,81.1165 613.572,73.1165 617.5,65.5C 620.149,63.86 622.816,62.1933 625.5,60.5C 629.245,57.9606 633.245,55.9606 637.5,54.5C 647.007,52.8745 656.34,53.2078 665.5,55.5C 675.079,58.9055 682.412,65.0722 687.5,74C 689.374,78.6629 690.374,83.4962 690.5,88.5C 694.165,86.5036 697.831,84.5036 701.5,82.5C 703.167,82.5 704.833,82.5 706.5,82.5C 707.552,84.256 709.219,84.9227 711.5,84.5C 711.044,75.3348 712.044,66.3348 714.5,57.5C 716.841,51.4874 719.174,45.4874 721.5,39.5C 722.496,39.5858 723.329,39.2524 724,38.5C 725.356,35.6711 726.856,33.0045 728.5,30.5C 735.095,24.8514 741.762,19.1847 748.5,13.5C 748.5,12.8333 748.833,12.5 749.5,12.5C 749.735,13.0967 750.235,13.4301 751,13.5C 753.253,12.6227 755.419,11.6227 757.5,10.5C 760.777,9.57713 764.11,8.7438 767.5,8C 768.056,7.61742 768.389,7.11742 768.5,6.5C 769.833,6.5 770.5,5.83333 770.5,4.5C 770.833,4.5 771.167,4.5 771.5,4.5C 771.56,5.04309 771.893,5.37642 772.5,5.5C 775.954,4.48734 779.287,3.48734 782.5,2.5 Z"/></g>
<g><path style="opacity:0.371" fill="#555555" d="M 770.5,4.5 C 770.5,5.83333 769.833,6.5 768.5,6.5C 766.965,7.3543 765.632,7.3543 764.5,6.5C 766.102,4.92606 768.102,4.25939 770.5,4.5 Z"/></g>
<g><path style="opacity:0.722" fill="#b3b3b3" d="M 764.5,6.5 C 765.632,7.3543 766.965,7.3543 768.5,6.5C 768.389,7.11742 768.056,7.61742 767.5,8C 764.11,8.7438 760.777,9.57713 757.5,10.5C 758.9,9.89992 759.9,8.89992 760.5,7.5C 761.708,6.76589 763.041,6.43255 764.5,6.5 Z"/></g>
<g><path style="opacity:0.443" fill="#747474" d="M 760.5,7.5 C 759.9,8.89992 758.9,9.89992 757.5,10.5C 755.419,11.6227 753.253,12.6227 751,13.5C 750.235,13.4301 749.735,13.0967 749.5,12.5C 752.925,10.4353 756.592,8.76866 760.5,7.5 Z"/></g>
<g><path style="opacity:0.251" fill="#646464" d="M 748.5,13.5 C 741.762,19.1847 735.095,24.8514 728.5,30.5C 733.303,22.7011 739.97,17.0345 748.5,13.5 Z"/></g>
<g><path style="opacity:0.071" fill="#3e3e3e" d="M 307.5,22.5 C 312.167,23.8333 315.167,26.8333 316.5,31.5C 313.167,28.8333 310.167,25.8333 307.5,22.5 Z"/></g>
<g><path style="opacity:0.214" fill="#636363" d="M 871.5,60.5 C 868.402,51.7557 864.236,43.4224 859,35.5C 848.672,22.8403 835.838,13.6736 820.5,8C 808.173,5.16832 795.839,3.33498 783.5,2.5C 820.406,-0.702932 848.24,13.6304 867,45.5C 869.211,50.2983 870.711,55.2983 871.5,60.5 Z"/></g>
<g><path style="opacity:0.125" fill="#737373" d="M 185.5,26.5 C 182.963,31.2173 179.796,35.5506 176,39.5C 175.722,43.1261 173.888,45.1261 170.5,45.5C 172.443,41.8673 174.443,38.2006 176.5,34.5C 179.081,31.3118 182.081,28.6451 185.5,26.5 Z"/></g>
<g><path style="opacity:0.086" fill="#6b6b6b" d="M 728.5,30.5 C 726.856,33.0045 725.356,35.6711 724,38.5C 723.329,39.2524 722.496,39.5858 721.5,39.5C 722.169,35.1443 724.502,32.1443 728.5,30.5 Z"/></g>
<g><path style="opacity:0.112" fill="#6c6c6c" d="M 1042.5,48.5 C 1034.94,45.106 1027.27,41.9394 1019.5,39C 991.335,31.1908 964.002,33.3575 937.5,45.5C 936.893,45.3764 936.56,45.0431 936.5,44.5C 956.783,33.6798 978.45,29.8464 1001.5,33C 1015.12,35.586 1028.12,39.9193 1040.5,46C 1041.38,46.7083 1042.05,47.5416 1042.5,48.5 Z"/></g>
<g><path style="opacity:0.298" fill="#686868" d="M 316.5,31.5 C 322.729,36.2628 326.729,42.5961 328.5,50.5C 327.542,50.0472 326.708,49.3805 326,48.5C 323.33,42.4877 320.164,36.821 316.5,31.5 Z"/></g>
<g><path style="opacity:0.318" fill="#606060" d="M 934.5,45.5 C 934.938,45.4346 935.272,45.6012 935.5,46C 934.497,47.5458 933.497,47.7125 932.5,46.5C 932.842,45.6618 933.508,45.3284 934.5,45.5 Z"/></g>
<g><path style="opacity:0.153" fill="#313131" d="M 135.5,50.5 C 141.244,49.117 146.91,49.4503 152.5,51.5C 150.167,51.5 147.833,51.5 145.5,51.5C 142.375,50.5206 139.042,50.1872 135.5,50.5 Z"/></g>
<g><path style="opacity:0.392" fill="#8a8a8a" d="M 135.5,50.5 C 139.042,50.1872 142.375,50.5206 145.5,51.5C 139.471,51.4255 133.471,51.7588 127.5,52.5C 129.838,50.9605 132.505,50.2938 135.5,50.5 Z"/></g>
<g><path style="opacity:0.509" fill="#4c4c4c" d="M 660.5,52.5 C 653.5,52.5 646.5,52.5 639.5,52.5C 646.491,49.8874 653.491,49.8874 660.5,52.5 Z"/></g>
<g><path style="opacity:0.817" fill="#bfbfbf" d="M 639.5,52.5 C 646.5,52.5 653.5,52.5 660.5,52.5C 661.833,52.8333 663.167,53.1667 664.5,53.5C 664.833,54.1667 665.167,54.8333 665.5,55.5C 656.34,53.2078 647.007,52.8745 637.5,54.5C 638.167,53.8333 638.833,53.1667 639.5,52.5 Z"/></g>
<g><path style="opacity:0.165" fill="#424242" d="M 328.5,50.5 C 329.965,51.4057 330.965,52.739 331.5,54.5C 333.631,55.1687 335.631,55.8354 337.5,56.5C 334.833,56.5 332.167,56.5 329.5,56.5C 328.85,54.5648 328.517,52.5648 328.5,50.5 Z"/></g>
<g><path style="opacity:0.176" fill="#585858" d="M 928.5,49.5 C 928.586,50.4959 928.252,51.3292 927.5,52C 924.798,53.0121 922.465,54.5121 920.5,56.5C 919.833,56.5 919.167,56.5 918.5,56.5C 920.834,52.7243 924.167,50.391 928.5,49.5 Z"/></g>
<g><path style="opacity:0.153" fill="#6c6c6c" d="M 1042.5,48.5 C 1045.93,50.0761 1049.26,51.9094 1052.5,54C 1058.76,58.7549 1064.09,64.2549 1068.5,70.5C 1062.11,65.29 1055.78,59.79 1049.5,54C 1046.29,53.0884 1043.96,51.255 1042.5,48.5 Z"/></g>
<g><path style="opacity:0.353" fill="#959595" d="M 639.5,52.5 C 638.833,53.1667 638.167,53.8333 637.5,54.5C 633.245,55.9606 629.245,57.9606 625.5,60.5C 625.5,59.8333 625.5,59.1667 625.5,58.5C 629.522,55.1809 634.189,53.1809 639.5,52.5 Z"/></g>
<g><path style="opacity:0.392" fill="#686868" d="M 721.5,39.5 C 719.174,45.4874 716.841,51.4874 714.5,57.5C 712.044,66.3348 711.044,75.3348 711.5,84.5C 709.219,84.9227 707.552,84.256 706.5,82.5C 707.167,82.5 707.833,82.5 708.5,82.5C 708.56,83.0431 708.893,83.3764 709.5,83.5C 710.811,79.0162 710.811,74.6829 709.5,70.5C 710.556,60.1648 713.723,50.4982 719,41.5C 719.708,40.6195 720.542,39.9528 721.5,39.5 Z"/></g>
<g><path style="opacity:0.227" fill="#737373" d="M 126.5,52.5 C 122.849,56.3011 118.682,59.6345 114,62.5C 112.099,61.4645 110.265,60.2978 108.5,59C 106.2,58.3417 103.867,57.8417 101.5,57.5C 96.1074,59.0301 91.1074,61.3635 86.5,64.5C 86.8588,62.629 87.8588,61.129 89.5,60C 95.0417,56.6991 101.042,55.6991 107.5,57C 110.034,57.5163 112.2,58.683 114,60.5C 116.763,58.7437 119.263,56.5771 121.5,54C 123.154,53.3923 124.821,52.8923 126.5,52.5 Z"/></g>
<g><path style="opacity:0.102" fill="#7f7f7f" d="M 170.5,45.5 C 170.804,46.1499 171.137,46.8165 171.5,47.5C 169.879,52.0374 167.879,56.3707 165.5,60.5C 159.665,55.393 152.999,52.393 145.5,51.5C 147.833,51.5 150.167,51.5 152.5,51.5C 156.887,52.4608 160.721,54.4608 164,57.5C 166.967,53.8974 169.134,49.8974 170.5,45.5 Z"/></g>
<g><path style="opacity:0.114" fill="#656565" d="M 526.5,65.5 C 523.031,62.9277 519.364,60.5943 515.5,58.5C 509.166,57.3446 502.832,57.3446 496.5,58.5C 497.347,57.0337 498.68,56.2004 500.5,56C 505.167,55.3333 509.833,55.3333 514.5,56C 517.167,57.3333 519.833,58.6667 522.5,60C 524.464,61.451 525.797,63.2843 526.5,65.5 Z"/></g>
<g><path style="opacity:0.067" fill="#3f3f3f" d="M 496.5,58.5 C 496.5,59.1667 496.5,59.8333 496.5,60.5C 491.036,61.7567 485.703,61.7567 480.5,60.5C 485.698,59.7412 491.031,59.0746 496.5,58.5 Z"/></g>
<g><path style="opacity:0.753" fill="#adadad" d="M 480.5,60.5 C 485.703,61.7567 491.036,61.7567 496.5,60.5C 496.389,61.1174 496.056,61.6174 495.5,62C 489.5,62.3333 483.5,62.6667 477.5,63C 475.043,63.9158 472.709,65.0825 470.5,66.5C 469.584,66.4573 468.917,66.1239 468.5,65.5C 470.179,65.7148 471.179,65.0481 471.5,63.5C 474.402,62.2163 477.402,61.2163 480.5,60.5 Z"/></g>
<g><path style="opacity:0.098" fill="#595959" d="M 625.5,58.5 C 625.5,59.1667 625.5,59.8333 625.5,60.5C 622.816,62.1933 620.149,63.86 617.5,65.5C 618.92,61.7833 621.587,59.4499 625.5,58.5 Z"/></g>
<g><path style="opacity:0.298" fill="#3d3d3d" d="M 459.5,64.5 C 463.298,63.5166 467.298,63.1832 471.5,63.5C 471.179,65.0481 470.179,65.7148 468.5,65.5C 465.833,65.5 463.167,65.5 460.5,65.5C 460.5,64.8333 460.167,64.5 459.5,64.5 Z"/></g>
<g><path style="opacity:0.325" fill="#535353" d="M 86.5,64.5 C 85.7814,66.7638 85.448,69.0971 85.5,71.5C 73.5086,67.0358 61.1753,64.3691 48.5,63.5C 60.0342,62.5306 71.3675,64.1972 82.5,68.5C 83.5213,66.812 84.8546,65.4787 86.5,64.5 Z"/></g>
<g><path style="opacity:0.151" fill="#595959" d="M 445.5,72.5 C 445.5,73.5 445.5,74.5 445.5,75.5C 444.518,76.1408 443.518,76.8075 442.5,77.5C 431.287,67.8909 418.62,65.3909 404.5,70C 399.655,73.3564 394.988,76.8564 390.5,80.5C 400.613,66.8546 413.946,62.6879 430.5,68C 434.717,70.3609 438.884,72.8609 443,75.5C 443.852,74.4293 444.685,73.4293 445.5,72.5 Z"/></g>
<g><path style="opacity:0.051" fill="#757575" d="M 329.5,56.5 C 332.167,56.5 334.833,56.5 337.5,56.5C 343.97,57.4654 348.136,61.1321 350,67.5C 350.186,70.0356 350.686,72.369 351.5,74.5C 351.548,75.5071 350.548,75.8404 348.5,75.5C 349.877,68.9817 347.877,63.8151 342.5,60C 338.14,58.4171 333.806,57.2505 329.5,56.5 Z"/></g>
<g><path style="opacity:0.031" fill="#686868" d="M 47.5,63.5 C 47.0296,64.6935 46.0296,65.3601 44.5,65.5C 37.3048,66.6383 30.3048,68.4716 23.5,71C 20.8641,73.1757 18.1974,74.3424 15.5,74.5C 24.9319,67.6878 35.5986,64.0212 47.5,63.5 Z"/></g>
<g><path style="opacity:0.188" fill="#6f6f6f" d="M 918.5,56.5 C 919.167,56.5 919.833,56.5 920.5,56.5C 916.108,60.8972 911.442,64.8972 906.5,68.5C 907.072,66.7446 907.906,65.0779 909,63.5C 912.063,60.9245 915.229,58.5912 918.5,56.5 Z"/></g>
<g><path style="opacity:0.169" fill="#7d7d7d" d="M 459.5,64.5 C 460.167,64.5 460.5,64.8333 460.5,65.5C 454.206,67.1296 449.206,70.463 445.5,75.5C 445.5,74.5 445.5,73.5 445.5,72.5C 448.929,67.782 453.596,65.1153 459.5,64.5 Z"/></g>
<g><path style="opacity:0.245" fill="#8c8c8c" d="M 526.5,65.5 C 529.841,68.8397 532.174,72.8397 533.5,77.5C 532.833,77.5 532.5,77.8333 532.5,78.5C 530.794,74.0851 528.794,69.7518 526.5,65.5 Z"/></g>
<g><path style="opacity:0.035" fill="#4b4b4b" d="M 871.5,61.5 C 873.862,63.919 874.862,66.919 874.5,70.5C 876.95,70.298 879.283,70.6314 881.5,71.5C 879.393,72.4682 877.059,72.8016 874.5,72.5C 873.504,72.5858 872.671,72.2524 872,71.5C 871.502,68.1832 871.335,64.8499 871.5,61.5 Z"/></g>
<g><path style="opacity:0.247" fill="#646464" d="M 906.5,68.5 C 906.167,70.8333 904.833,72.1667 902.5,72.5C 902.894,70.2901 904.227,68.9568 906.5,68.5 Z"/></g>
<g><path style="opacity:0.138" fill="#1e1e1e" d="M 709.5,70.5 C 710.811,74.6829 710.811,79.0162 709.5,83.5C 708.893,83.3764 708.56,83.0431 708.5,82.5C 709.483,78.7016 709.817,74.7016 709.5,70.5 Z"/></g>
<g><path style="opacity:0.235" fill="#313131" d="M 882.5,71.5 C 884.75,72.1302 886.75,73.1302 888.5,74.5C 885.784,74.6138 883.784,73.6138 882.5,71.5 Z"/></g>
<g><path style="opacity:0.184" fill="#151515" d="M 365.5,74.5 C 361.833,74.5 358.167,74.5 354.5,74.5C 353.833,74.5 353.5,74.1667 353.5,73.5C 354.964,72.8401 356.631,72.5068 358.5,72.5C 361.205,72.3161 363.538,72.9827 365.5,74.5 Z"/></g>
<g><path style="opacity:0.568" fill="#a1a1a1" d="M 354.5,74.5 C 358.167,74.5 361.833,74.5 365.5,74.5C 369.358,74.7701 372.691,76.1034 375.5,78.5C 375.5,78.8333 375.5,79.1667 375.5,79.5C 373.158,79.4959 371.158,78.6625 369.5,77C 364.339,76.2677 359.339,75.4344 354.5,74.5 Z"/></g>
<g><path style="opacity:0.647" fill="#bababa" d="M 881.5,71.5 C 881.833,71.5 882.167,71.5 882.5,71.5C 883.784,73.6138 885.784,74.6138 888.5,74.5C 888.5,74.8333 888.5,75.1667 888.5,75.5C 883.651,74.7838 878.985,73.7838 874.5,72.5C 877.059,72.8016 879.393,72.4682 881.5,71.5 Z"/></g>
<g><path style="opacity:0.243" fill="#656565" d="M 888.5,74.5 C 891.691,74.7622 894.358,76.0955 896.5,78.5C 897.622,77.3698 898.956,76.7031 900.5,76.5C 899.928,77.9733 899.095,79.3066 898,80.5C 894.396,79.4798 891.23,77.8132 888.5,75.5C 888.5,75.1667 888.5,74.8333 888.5,74.5 Z"/></g>
<g><path style="opacity:0.196" fill="#555555" d="M 13.5,75.5 C 13.9382,75.4346 14.2716,75.6012 14.5,76C 9.39531,80.5244 4.39531,85.0244 -0.5,89.5C -0.5,88.8333 -0.5,88.1667 -0.5,87.5C 3.71358,83.0467 8.38025,79.0467 13.5,75.5 Z"/></g>
<g><path style="opacity:0.41" fill="#727272" d="M 592.5,78.5 C 584.809,78.4035 577.142,78.7368 569.5,79.5C 577.048,75.9934 584.715,75.6601 592.5,78.5 Z"/></g>
<g><path style="opacity:0.365" fill="#575757" d="M 375.5,78.5 C 380.167,79.8333 383.167,82.8333 384.5,87.5C 381.5,84.8333 378.5,82.1667 375.5,79.5C 375.5,79.1667 375.5,78.8333 375.5,78.5 Z"/></g>
<g><path style="opacity:0.212" fill="#6a6a6a" d="M 533.5,77.5 C 534.468,79.6074 534.802,81.9407 534.5,84.5C 540.727,85.3812 545.727,88.3812 549.5,93.5C 554.163,86.495 560.497,81.8283 568.5,79.5C 563.825,82.7047 559.159,86.2047 554.5,90C 553.777,92.0183 552.777,93.8516 551.5,95.5C 550.167,95.5 548.833,95.5 547.5,95.5C 544.21,89.7286 539.21,86.7286 532.5,86.5C 532.5,83.8333 532.5,81.1667 532.5,78.5C 532.5,77.8333 532.833,77.5 533.5,77.5 Z"/></g>
<g><path style="opacity:0.02" fill="#6a6a6a" d="M 1068.5,70.5 C 1069.79,71.2899 1070.96,72.2899 1072,73.5C 1073.97,77.9392 1076.47,81.9392 1079.5,85.5C 1079.5,86.8333 1079.5,88.1667 1079.5,89.5C 1075.58,83.3382 1071.92,77.0049 1068.5,70.5 Z"/></g>
<g><path style="opacity:0.322" fill="#777777" d="M 664.5,53.5 C 680.408,58.2514 689.908,68.918 693,85.5C 695.419,83.4152 698.253,82.4152 701.5,82.5C 697.831,84.5036 694.165,86.5036 690.5,88.5C 690.374,83.4962 689.374,78.6629 687.5,74C 682.412,65.0722 675.079,58.9055 665.5,55.5C 665.167,54.8333 664.833,54.1667 664.5,53.5 Z"/></g>
<g><path style="opacity:0.373" fill="#8a8a8a" d="M 617.5,65.5 C 613.572,73.1165 610.739,81.1165 609,89.5C 603.854,85.6886 598.688,82.0219 593.5,78.5C 598.611,79.6389 603.111,81.9722 607,85.5C 607.352,83.7525 607.852,82.0858 608.5,80.5C 609.833,80.5 610.5,79.8333 610.5,78.5C 611.023,73.1157 613.357,68.7824 617.5,65.5 Z"/></g>
<g><path style="opacity:0.243" fill="#414141" d="M 610.5,78.5 C 610.5,79.8333 609.833,80.5 608.5,80.5C 608.5,79.1667 609.167,78.5 610.5,78.5 Z"/></g>
<g><path style="opacity:0.047" fill="#4b4b4b" d="M 389.5,83.5 C 388.572,86.1296 387.572,88.7963 386.5,91.5C 385.295,90.4231 384.628,89.0898 384.5,87.5C 385.853,85.8173 387.52,84.4839 389.5,83.5 Z"/></g>
</svg>
