<?xml version="1.0" encoding="iso-8859-1"?>
<!-- Generator: Adobe Illustrator 21.0.2, SVG Export Plug-In . SVG Version: 6.00 Build 0)  -->
<svg version="1.1" id="Layer_1_1_" xmlns="http://www.w3.org/2000/svg" xmlns:xlink="http://www.w3.org/1999/xlink" x="0px" y="0px"
	 viewBox="0 0 64 64" style="enable-background:new 0 0 64 64;" xml:space="preserve">
<g>
</g>
<path d="M9.948,30.252c0.91,0.764,1.852,1.554,2.074,2.239c0.241,0.742-0.062,1.975-0.354,3.168
	c-0.441,1.798-0.898,3.658,0.106,5.038c1.015,1.394,2.936,1.533,4.795,1.667c1.215,0.088,2.471,0.179,3.087,0.627
	c0.524,0.381,0.945,1.304,1.344,2.272V61c0,0.347,0.18,0.668,0.475,0.851c0.294,0.182,0.662,0.197,0.973,0.044L28,59.118
	l5.553,2.776C33.694,61.965,33.847,62,34,62c0.183,0,0.365-0.05,0.525-0.149C34.82,61.668,35,61.347,35,61v-2.5l3-2.25l3.4,2.55
	c0.176,0.132,0.388,0.2,0.6,0.2c0.152,0,0.306-0.035,0.447-0.105C42.786,58.725,43,58.379,43,58V45.263
	c0.399-0.969,0.82-1.891,1.343-2.272c0.616-0.448,1.873-0.539,3.088-0.627c1.858-0.134,3.78-0.272,4.795-1.667
	c1.004-1.38,0.548-3.239,0.106-5.038c-0.293-1.192-0.596-2.426-0.354-3.168c0.223-0.686,1.164-1.476,2.074-2.239
	C55.434,29.092,57,27.777,57,26s-1.566-3.092-2.948-4.252c-0.91-0.764-1.852-1.554-2.074-2.239
	c-0.241-0.742,0.062-1.975,0.354-3.168c0.441-1.798,0.898-3.658-0.106-5.038c-1.015-1.394-2.936-1.533-4.795-1.667
	c-1.215-0.088-2.471-0.179-3.087-0.627c-0.603-0.438-1.07-1.594-1.522-2.711c-0.704-1.741-1.433-3.54-3.095-4.08
	c-1.595-0.52-3.208,0.48-4.766,1.447C33.902,4.321,32.808,5,32,5s-1.902-0.679-2.961-1.335c-1.558-0.967-3.172-1.967-4.766-1.447
	c-1.662,0.54-2.39,2.339-3.094,4.079c-0.453,1.118-0.921,2.274-1.522,2.712c-0.616,0.448-1.873,0.539-3.088,0.627
	c-1.858,0.134-3.78,0.272-4.795,1.667c-1.004,1.38-0.548,3.239-0.106,5.038c0.293,1.192,0.596,2.426,0.354,3.168
	c-0.223,0.686-1.164,1.476-2.074,2.239C8.566,22.908,7,24.223,7,26S8.566,29.092,9.948,30.252z M33,59.382l-4.553-2.276
	C28.307,57.035,28.153,57,28,57s-0.307,0.035-0.447,0.105L23,59.382V48.987c0.025,0.025,0.055,0.041,0.081,0.065
	c0.115,0.108,0.239,0.204,0.366,0.295c0.062,0.044,0.12,0.093,0.186,0.133c0.198,0.121,0.409,0.226,0.641,0.302
	c1.594,0.518,3.208-0.48,4.766-1.447C30.098,47.679,31.192,47,32,47c0.127,0,0.269,0.022,0.422,0.057
	c0.023,0.005,0.047,0.012,0.071,0.018c0.156,0.041,0.322,0.096,0.507,0.173V58V59.382z M41,56l-2.4-1.8
	C38.422,54.067,38.211,54,38,54s-0.422,0.067-0.6,0.2L35,56v-7.638c0.265,0.164,0.531,0.326,0.799,0.483
	c0.064,0.038,0.128,0.075,0.193,0.112c0.097,0.055,0.193,0.109,0.291,0.162c0.102,0.056,0.205,0.108,0.307,0.16
	c0.075,0.038,0.15,0.077,0.225,0.112c0.16,0.076,0.32,0.145,0.48,0.208c0.021,0.008,0.042,0.019,0.064,0.027
	c0.18,0.068,0.361,0.124,0.542,0.171c0.056,0.015,0.112,0.023,0.169,0.035c0.126,0.027,0.253,0.05,0.379,0.064
	c0.068,0.008,0.136,0.011,0.204,0.015c0.056,0.003,0.113,0.013,0.169,0.013c0.066,0,0.133-0.011,0.199-0.015
	c0.057-0.004,0.115-0.006,0.172-0.013c0.179-0.022,0.357-0.056,0.536-0.114c0.233-0.076,0.443-0.181,0.642-0.302
	c0.065-0.04,0.123-0.088,0.184-0.132c0.128-0.091,0.252-0.187,0.366-0.295c0.025-0.024,0.056-0.041,0.081-0.066V56z M11.234,23.279
	c1.126-0.945,2.291-1.922,2.69-3.153c0.417-1.284,0.045-2.798-0.314-4.263c-0.316-1.292-0.676-2.755-0.219-3.384
	c0.468-0.643,1.984-0.752,3.322-0.849c1.495-0.108,3.041-0.22,4.12-1.004c1.064-0.775,1.642-2.201,2.199-3.579
	c0.508-1.254,1.083-2.675,1.857-2.927c0.721-0.229,1.979,0.552,3.095,1.244C29.282,6.168,30.623,7,32,7s2.718-0.832,4.015-1.636
	c1.116-0.692,2.375-1.474,3.095-1.244c0.774,0.251,1.351,1.673,1.858,2.927c0.558,1.378,1.135,2.804,2.199,3.579
	c1.078,0.785,2.625,0.896,4.12,1.004c1.338,0.097,2.854,0.206,3.321,0.849c0.458,0.629,0.099,2.093-0.219,3.385
	c-0.359,1.464-0.731,2.979-0.314,4.262c0.399,1.231,1.564,2.209,2.69,3.154C53.864,24.202,55,25.155,55,26
	c0,0.845-1.136,1.798-2.234,2.721c-1.126,0.945-2.291,1.922-2.69,3.153c-0.417,1.284-0.045,2.798,0.314,4.263
	c0.316,1.292,0.676,2.755,0.219,3.384c-0.468,0.643-1.984,0.752-3.322,0.849c-1.495,0.108-3.041,0.22-4.12,1.004
	c-0.997,0.726-1.565,2.022-2.092,3.315c0,0.001-0.001,0.001-0.001,0.002l-0.035,0.086c-0.024,0.059-0.048,0.117-0.072,0.176
	c-0.508,1.254-1.083,2.675-1.857,2.927c-0.719,0.232-1.979-0.552-3.095-1.244c-0.721-0.447-1.457-0.898-2.204-1.214
	c-0.023-0.01-0.045-0.019-0.068-0.028c-0.177-0.073-0.354-0.136-0.532-0.191c-0.031-0.01-0.064-0.021-0.095-0.03
	c-0.159-0.046-0.32-0.081-0.48-0.109c-0.031-0.005-0.064-0.015-0.095-0.019C32.362,45.016,32.181,45,32,45
	c-1.377,0-2.718,0.832-4.015,1.636c-1.116,0.692-2.375,1.475-3.095,1.244c-0.766-0.249-1.338-1.643-1.842-2.886
	c-0.006-0.014-0.012-0.029-0.018-0.043l-0.104-0.259c-0.001-0.002-0.002-0.003-0.003-0.004c-0.526-1.293-1.095-2.588-2.091-3.313
	c-1.078-0.785-2.625-0.896-4.12-1.004c-1.338-0.097-2.854-0.206-3.321-0.849c-0.458-0.629-0.099-2.093,0.219-3.385
	c0.359-1.464,0.731-2.979,0.314-4.262c-0.399-1.231-1.564-2.209-2.69-3.154C10.136,27.798,9,26.845,9,26
	C9,25.155,10.136,24.202,11.234,23.279z"/>
<path d="M32,43c9.374,0,17-7.626,17-17S41.374,9,32,9s-17,7.626-17,17S22.626,43,32,43z M32,11c8.271,0,15,6.729,15,15
	s-6.729,15-15,15s-15-6.729-15-15S23.729,11,32,11z"/>
<polygon points="4,8 6,8 6,6 8,6 8,4 6,4 6,2 4,2 4,4 2,4 2,6 4,6 "/>
<polygon points="60,7 58,7 58,9 56,9 56,11 58,11 58,13 60,13 60,11 62,11 62,9 60,9 "/>
<polygon points="4,48 6,48 6,46 8,46 8,44 6,44 6,42 4,42 4,44 2,44 2,46 4,46 "/>
<polygon points="60,56 58,56 58,58 56,58 56,60 58,60 58,62 60,62 60,60 62,60 62,58 60,58 "/>
<path d="M57,46c-4.963,0-9,4.038-9,9v1h2v-1c0-3.86,3.141-7,7-7V46z"/>
<path d="M15,62v-1c0-4.962-4.037-9-9-9v2c3.859,0,7,3.14,7,7v1H15z"/>
<rect x="2" y="16" width="2" height="2"/>
<rect x="46" y="2" width="2" height="2"/>
<rect x="60" y="46" width="2" height="2"/>
<rect x="2" y="52" width="2" height="2"/>
<rect x="58" y="31" width="2" height="2"/>
<path d="M24,32c0,0.552,0.447,1,1,1h14c0.553,0,1-0.448,1-1v-6.845l2-0.727V27h2v-4c0-0.42-0.263-0.796-0.658-0.94l-11-4
	c-0.221-0.08-0.463-0.08-0.684,0l-11,4C20.263,22.204,20,22.58,20,23s0.263,0.796,0.658,0.94L24,25.155V32z M38,31H26v-5.118
	l5.658,2.058C31.769,27.98,31.885,28,32,28s0.231-0.02,0.342-0.06L38,25.882V31z M32,20.064L40.074,23l-1.414,0.514
	c-0.001,0-0.001,0-0.002,0L32,25.936l-6.658-2.421c-0.001,0-0.001,0-0.002,0L23.926,23L32,20.064z"/>
</svg>
