<?xml version="1.0" encoding="UTF-8" standalone="no"?> <svg width="64" height="64" viewBox="0 0 64 64" fill="none" xmlns="http://www.w3.org/2000/svg">
<path d="M24 50H22V47C22 46.7348 21.8946 46.4804 21.7071 46.2929C21.5196 46.1054 21.2652 46 21 46C20.7348 46 20.4804 46.1054 20.2929 46.2929C20.1054 46.4804 20 46.7348 20 47V50H5V47C5 46.7348 4.89464 46.4804 4.70711 46.2929C4.51957 46.1054 4.26522 46 4 46C3.73478 46 3.48043 46.1054 3.29289 46.2929C3.10536 46.4804 3 46.7348 3 47V50H2C1.73478 50 1.48043 50.1054 1.29289 50.2929C1.10536 50.4804 1 50.7348 1 51C1 51.2652 1.10536 51.5196 1.29289 51.7071C1.48043 51.8946 1.73478 52 2 52H24C24.2652 52 24.5196 51.8946 24.7071 51.7071C24.8946 51.5196 25 51.2652 25 51C25 50.7348 24.8946 50.4804 24.7071 50.2929C24.5196 50.1054 24.2652 50 24 50Z" fill="#000066"/>
<path d="M56 7H6V33H23C23.2652 33 23.5196 33.1054 23.7071 33.2929C23.8946 33.4804 24 33.7348 24 34V37H56" fill="#20B2AD"/>
<path d="M58 3H4C3.46957 3 2.96086 3.21071 2.58579 3.58579C2.21071 3.96086 2 4.46957 2 5V9C2 9.53043 2.21071 10.0391 2.58579 10.4142C2.96086 10.7893 3.46957 11 4 11H6V7H56V11H58C58.5304 11 59.0391 10.7893 59.4142 10.4142C59.7893 10.0391 60 9.53043 60 9V5C60 4.46957 59.7893 3.96086 59.4142 3.58579C59.0391 3.21071 58.5304 3 58 3Z" fill="#FF7F00"/>
<path d="M31 46C32.1046 46 33 45.1046 33 44C33 42.8954 32.1046 42 31 42C29.8954 42 29 42.8954 29 44C29 45.1046 29.8954 46 31 46Z" fill="#FFD700"/>
<path d="M49 26.38V19C49 16.8783 48.1571 14.8434 46.6569 13.3431C45.1566 11.8429 43.1217 11 41 11C38.8783 11 36.8434 11.8429 35.3431 13.3431C33.8429 14.8434 33 16.8783 33 19V26.38" fill="#FF7F00"/>
<path d="M42.5 11.145C41.3431 10.9214 40.1511 10.9567 39.0095 11.2482C37.8678 11.5397 36.8048 12.0803 35.8967 12.8311C34.9887 13.5819 34.258 14.5244 33.7572 15.591C33.2564 16.6575 32.9978 17.8217 33 19V26.38H36V19C36.0007 17.1391 36.6502 15.3366 37.8366 13.9029C39.023 12.4692 40.6721 11.4939 42.5 11.145Z" fill="#DB6A03"/>
<path d="M43 24H39V26H43V24Z" fill="#E5C200"/>
<path d="M36 25H46C47.0609 25 48.0783 25.4214 48.8284 26.1716C49.5786 26.9217 50 27.9391 50 29V37H32V29C32 27.9391 32.4214 26.9217 33.1716 26.1716C33.9217 25.4214 34.9391 25 36 25V25Z" fill="#9C02A0"/>
<path d="M38 35C36.9391 35 35.9217 34.5786 35.1716 33.8284C34.4214 33.0783 34 32.0609 34 31V25.555C33.3935 25.903 32.8893 26.4047 32.5383 27.0094C32.1872 27.6142 32.0015 28.3007 32 29V37H50V35H38Z" fill="#800080"/>
<path d="M41 30L38 25H44L41 30Z" fill="#FFD700"/>
<path d="M37 17H45V21C45 22.0609 44.5786 23.0783 43.8284 23.8284C43.0783 24.5786 42.0609 25 41 25C39.9391 25 38.9217 24.5786 38.1716 23.8284C37.4214 23.0783 37 22.0609 37 21V17Z" fill="#FFD700"/>
<path d="M45 17H37V19H45V17Z" fill="#E5C200"/>
<path d="M6 11H27V25C27 25.5304 26.7893 26.0391 26.4142 26.4142C26.0391 26.7893 25.5304 27 25 27H6V11Z" fill="#FFD700"/>
<path d="M14 15H10V19H14V15Z" fill="#800080"/>
<path d="M23 16H18C17.7348 16 17.4804 15.8946 17.2929 15.7071C17.1054 15.5196 17 15.2652 17 15C17 14.7348 17.1054 14.4804 17.2929 14.2929C17.4804 14.1054 17.7348 14 18 14H23C23.2652 14 23.5196 14.1054 23.7071 14.2929C23.8946 14.4804 24 14.7348 24 15C24 15.2652 23.8946 15.5196 23.7071 15.7071C23.5196 15.8946 23.2652 16 23 16Z" fill="#000066"/>
<path d="M23 20H18C17.7348 20 17.4804 19.8946 17.2929 19.7071C17.1054 19.5196 17 19.2652 17 19C17 18.7348 17.1054 18.4804 17.2929 18.2929C17.4804 18.1054 17.7348 18 18 18H23C23.2652 18 23.5196 18.1054 23.7071 18.2929C23.8946 18.4804 24 18.7348 24 19C24 19.2652 23.8946 19.5196 23.7071 19.7071C23.5196 19.8946 23.2652 20 23 20Z" fill="#000066"/>
<path d="M17 24H10C9.73478 24 9.48043 23.8946 9.29289 23.7071C9.10536 23.5196 9 23.2652 9 23C9 22.7348 9.10536 22.4804 9.29289 22.2929C9.48043 22.1054 9.73478 22 10 22H17C17.2652 22 17.5196 22.1054 17.7071 22.2929C17.8946 22.4804 18 22.7348 18 23C18 23.2652 17.8946 23.5196 17.7071 23.7071C17.5196 23.8946 17.2652 24 17 24Z" fill="#000066"/>
<path d="M23 24H21C20.7348 24 20.4804 23.8946 20.2929 23.7071C20.1054 23.5196 20 23.2652 20 23C20 22.7348 20.1054 22.4804 20.2929 22.2929C20.4804 22.1054 20.7348 22 21 22H23C23.2652 22 23.5196 22.1054 23.7071 22.2929C23.8946 22.4804 24 22.7348 24 23C24 23.2652 23.8946 23.5196 23.7071 23.7071C23.5196 23.8946 23.2652 24 23 24Z" fill="#000066"/>
<path d="M43.62 25H38.38C39.1007 25.6441 40.0334 26.0001 41 26.0001C41.9666 26.0001 42.8993 25.6441 43.62 25V25Z" fill="#E5C200"/>
<path d="M38 21V17H37V21C37 22.0609 37.4214 23.0783 38.1716 23.8284C38.9217 24.5786 39.9391 25 41 25C41.1675 24.9935 41.3345 24.9768 41.5 24.95C40.5355 24.8311 39.6476 24.3641 39.0032 23.6368C38.3587 22.9094 38.002 21.9718 38 21V21Z" fill="#E5C200"/>
<path d="M59 36H23C22.7348 36 22.4804 36.1054 22.2929 36.2929C22.1054 36.4804 22 36.7348 22 37C22 37.2652 22.1054 37.5196 22.2929 37.7071C22.4804 37.8946 22.7348 38 23 38H30V41.184C29.3328 41.4199 28.7704 41.8841 28.4124 42.4945C28.0543 43.1049 27.9235 43.8222 28.0432 44.5197C28.1629 45.2172 28.5253 45.85 29.0663 46.3061C29.6074 46.7622 30.2923 47.0124 31 47.0124C31.7077 47.0124 32.3926 46.7622 32.9337 46.3061C33.4747 45.85 33.8371 45.2172 33.9568 44.5197C34.0765 43.8222 33.9457 43.1049 33.5876 42.4945C33.2296 41.8841 32.6672 41.4199 32 41.184V38H59C59.2652 38 59.5196 37.8946 59.7071 37.7071C59.8946 37.5196 60 37.2652 60 37C60 36.7348 59.8946 36.4804 59.7071 36.2929C59.5196 36.1054 59.2652 36 59 36ZM31 45C30.8022 45 30.6089 44.9414 30.4444 44.8315C30.28 44.7216 30.1518 44.5654 30.0761 44.3827C30.0004 44.2 29.9806 43.9989 30.0192 43.8049C30.0578 43.6109 30.153 43.4327 30.2929 43.2929C30.4327 43.153 30.6109 43.0578 30.8049 43.0192C30.9989 42.9806 31.2 43.0004 31.3827 43.0761C31.5654 43.1518 31.7216 43.28 31.8315 43.4444C31.9414 43.6089 32 43.8022 32 44C32 44.2652 31.8946 44.5196 31.7071 44.7071C31.5196 44.8946 31.2652 45 31 45Z" fill="#000066"/>
<path d="M14 50H10V52H14V50Z" fill="#DB6A03"/>
<path d="M16 47H23C23.2652 47 23.5196 46.8946 23.7071 46.7071C23.8946 46.5196 24 46.2652 24 46V34C24 33.7348 23.8946 33.4804 23.7071 33.2929C23.5196 33.1054 23.2652 33 23 33H3C2.73478 33 2.48043 33.1054 2.29289 33.2929C2.10536 33.4804 2 33.7348 2 34V46C2 46.2652 2.10536 46.5196 2.29289 46.7071C2.48043 46.8946 2.73478 47 3 47H8" fill="#FFD700"/>
<path d="M10 43C8.93913 43 7.92172 42.5786 7.17157 41.8284C6.42143 41.0783 6 40.0609 6 39V33H3C2.73478 33 2.48043 33.1054 2.29289 33.2929C2.10536 33.4804 2 33.7348 2 34V46C2 46.2652 2.10536 46.5196 2.29289 46.7071C2.48043 46.8946 2.73478 47 3 47H23C23.2652 47 23.5196 46.8946 23.7071 46.7071C23.8946 46.5196 24 46.2652 24 46V43H10Z" fill="#E5C200"/>
<path d="M12 51C14.2091 51 16 49.2091 16 47C16 44.7909 14.2091 43 12 43C9.79086 43 8 44.7909 8 47C8 49.2091 9.79086 51 12 51Z" fill="#FF7F00"/>
<path d="M8 51H16C16.5304 51 17.0391 51.2107 17.4142 51.5858C17.7893 51.9609 18 52.4696 18 53V61H6V53C6 52.4696 6.21071 51.9609 6.58579 51.5858C6.96086 51.2107 7.46957 51 8 51V51Z" fill="#FF7F00"/>
<path d="M18 41C19.1046 41 20 40.1046 20 39C20 37.8954 19.1046 37 18 37C16.8954 37 16 37.8954 16 39C16 40.1046 16.8954 41 18 41Z" fill="#800080"/>
<path d="M14 50C13.1954 50.0022 12.4089 49.7611 11.7439 49.3082C11.0788 48.8554 10.5663 48.212 10.2735 47.4626C9.98068 46.7131 9.92137 45.8927 10.1033 45.1089C10.2853 44.3252 10.7 43.6148 11.293 43.071C10.6807 43.1785 10.102 43.4274 9.60281 43.7979C9.10365 44.1685 8.69785 44.6504 8.41769 45.2053C8.13752 45.7602 7.99072 46.3729 7.98897 46.9945C7.98722 47.6162 8.13056 48.2296 8.40759 48.7861C8.68463 49.3426 9.08771 49.8268 9.58477 50.2001C10.0818 50.5735 10.6592 50.8256 11.2708 50.9366C11.8825 51.0476 12.5116 51.0143 13.1081 50.8394C13.7046 50.6644 14.2521 50.3527 14.707 49.929C14.4739 49.9735 14.2373 49.9973 14 50Z" fill="#DB6A03"/>
<path d="M15.445 51H8.55499C8.90187 51.6075 9.40324 52.1125 10.0083 52.4638C10.6133 52.815 11.3004 53 12 53C12.6996 53 13.3867 52.815 13.9917 52.4638C14.5967 52.1125 15.0981 51.6075 15.445 51V51Z" fill="#DB6A03"/>
<path d="M8 55V51C7.46957 51 6.96086 51.2107 6.58579 51.5858C6.21071 51.9609 6 52.4696 6 53V61H18V59H12C10.9391 59 9.92172 58.5786 9.17157 57.8284C8.42143 57.0783 8 56.0609 8 55V55Z" fill="#DB6A03"/>
<path d="M41 54C43.2091 54 45 52.2091 45 50C45 47.7909 43.2091 46 41 46C38.7909 46 37 47.7909 37 50C37 52.2091 38.7909 54 41 54Z" fill="#FF7F00"/>
<path d="M45 54H37C36.4696 54 35.9609 54.2107 35.5858 54.5858C35.2107 54.9609 35 55.4696 35 56V61H47V56C47 55.4696 46.7893 54.9609 46.4142 54.5858C46.0391 54.2107 45.5304 54 45 54Z" fill="#FF7F00"/>
<path d="M56 41H42C41.7348 41 41.4804 41.1054 41.2929 41.2929C41.1054 41.4804 41 41.7348 41 42V46C41.8141 45.9971 42.6095 46.2436 43.2793 46.7063C43.949 47.169 44.4611 47.8257 44.7464 48.5881C45.0318 49.3505 45.0768 50.182 44.8754 50.9708C44.674 51.7595 44.2359 52.4677 43.62 53H57V42C57 41.7348 56.8946 41.4804 56.7071 41.2929C56.5196 41.1054 56.2652 41 56 41Z" fill="#20B2AD"/>
<path d="M49 50C47.9391 50 46.9217 49.5786 46.1716 48.8284C45.4214 48.0783 45 47.0609 45 46V41H42C41.7348 41 41.4804 41.1054 41.2929 41.2929C41.1054 41.4804 41 41.7348 41 42V46C41.8141 45.9971 42.6095 46.2436 43.2793 46.7063C43.949 47.169 44.4611 47.8257 44.7464 48.5881C45.0318 49.3505 45.0768 50.182 44.8754 50.9708C44.674 51.7595 44.2359 52.4677 43.62 53H57V50H49Z" fill="#1B8984"/>
<path d="M51 49C52.1046 49 53 48.1046 53 47C53 45.8954 52.1046 45 51 45C49.8954 45 49 45.8954 49 47C49 48.1046 49.8954 49 51 49Z" fill="#FF7F00"/>
<path d="M43.62 53C42.9315 53.6062 42.0539 53.9547 41.137 53.986V54H45C45.5305 54 46.0392 54.2107 46.4142 54.5858C46.7893 54.9609 47 55.4696 47 56V57H56C57.0609 57 58.0783 56.5786 58.8284 55.8284C59.5786 55.0783 60 54.0609 60 53H43.62Z" fill="#FFD700"/>
<path d="M43 53H39V55H43V53Z" fill="#DB6A03"/>
<path d="M43 53C42.1954 53.0022 41.4089 52.7611 40.7439 52.3082C40.0788 51.8554 39.5662 51.212 39.2735 50.4626C38.9807 49.7131 38.9214 48.8927 39.1033 48.1089C39.2853 47.3252 39.7 46.6148 40.293 46.071C39.6807 46.1785 39.102 46.4274 38.6028 46.7979C38.1037 47.1685 37.6978 47.6504 37.4177 48.2053C37.1375 48.7602 36.9907 49.3729 36.989 49.9945C36.9872 50.6162 37.1306 51.2296 37.4076 51.7861C37.6846 52.3426 38.0877 52.8268 38.5848 53.2001C39.0818 53.5735 39.6592 53.8256 40.2708 53.9366C40.8825 54.0476 41.5116 54.0143 42.1081 53.8394C42.7046 53.6644 43.2521 53.3527 43.707 52.929C43.4739 52.9735 43.2373 52.9973 43 53Z" fill="#DB6A03"/>
<path d="M44.445 54H37.555C37.9019 54.6075 38.4032 55.1125 39.0083 55.4638C39.6133 55.815 40.3004 56 41 56C41.6996 56 42.3867 55.815 42.9917 55.4638C43.5967 55.1125 44.0981 54.6075 44.445 54V54Z" fill="#DB6A03"/>
<path d="M36 56V54.277C35.6969 54.4513 35.4449 54.7022 35.2694 55.0046C35.0939 55.3071 35.001 55.6503 35 56V61H47V60H40C38.9391 60 37.9217 59.5785 37.1716 58.8284C36.4214 58.0783 36 57.0608 36 56Z" fill="#DB6A03"/>
</svg>
